<mxfile host="5c779873-086a-4e2d-911a-b6384c9d60f8" modified="2020-09-08T09:20:29.000Z" agent="5.0 (Macintosh; Intel Mac OS X 10_15_6) AppleWebKit/537.36 (KHTML, like Gecko) Code/1.48.1 Chrome/78.0.3904.130 Electron/7.3.2 Safari/537.36" etag="1pDttwsCfQskLyVLV0uU" version="13.1.3" pages="2">
    <diagram id="6hGFLwfOUW9BJ-s0fimq" name="Page-1">
        <mxGraphModel dx="2151" dy="747" grid="1" gridSize="10" guides="1" tooltips="1" connect="1" arrows="1" fold="1" page="1" pageScale="1" pageWidth="827" pageHeight="1169" math="0" shadow="0">
            <root>
                <mxCell id="0"/>
                <mxCell id="1" parent="0"/>
                <mxCell id="20" value="" style="rounded=1;arcSize=10;dashed=1;fillColor=none;gradientColor=none;dashPattern=8 3 1 3;strokeWidth=2;" parent="1" vertex="1">
                    <mxGeometry x="-10" y="240" width="770" height="580" as="geometry"/>
                </mxCell>
                <mxCell id="12" value="" style="rounded=1;arcSize=10;dashed=1;strokeColor=#F59D56;fillColor=none;gradientColor=none;dashPattern=8 4;strokeWidth=2;" parent="1" vertex="1">
                    <mxGeometry x="120" y="409.38" width="170" height="150" as="geometry"/>
                </mxCell>
                <mxCell id="10" value="" style="rounded=1;fillColor=none;gradientColor=none;arcSize=10;dashed=1;" parent="1" vertex="1">
                    <mxGeometry x="30" y="340" width="620" height="430" as="geometry"/>
                </mxCell>
                <mxCell id="14" value="" style="rounded=1;arcSize=10;dashed=1;strokeColor=#F59D56;fillColor=none;gradientColor=none;dashPattern=8 4;strokeWidth=2;" parent="1" vertex="1">
                    <mxGeometry x="430" y="409.38" width="170" height="150" as="geometry"/>
                </mxCell>
                <mxCell id="15" value="" style="rounded=1;arcSize=10;dashed=1;strokeColor=#ff0000;fillColor=none;gradientColor=none;dashPattern=8 4;strokeWidth=2;" parent="1" vertex="1">
                    <mxGeometry x="430" y="596.93" width="170" height="152.93" as="geometry"/>
                </mxCell>
                <mxCell id="16" value="" style="rounded=1;arcSize=10;dashed=1;strokeColor=#ff0000;fillColor=none;gradientColor=none;dashPattern=8 4;strokeWidth=2;" parent="1" vertex="1">
                    <mxGeometry x="120" y="599.4" width="170" height="148" as="geometry"/>
                </mxCell>
                <mxCell id="3" value="" style="outlineConnect=0;dashed=0;verticalLabelPosition=bottom;verticalAlign=top;align=center;html=1;shape=mxgraph.aws3.route_53;fillColor=#F58536;gradientColor=none;" parent="1" vertex="1">
                    <mxGeometry x="319.5" y="240" width="50.5" height="55.5" as="geometry"/>
                </mxCell>
                <mxCell id="5" value="" style="outlineConnect=0;dashed=0;verticalLabelPosition=bottom;verticalAlign=top;align=center;html=1;shape=mxgraph.aws3.ec2;fillColor=#F58534;gradientColor=none;" parent="1" vertex="1">
                    <mxGeometry x="140" y="480" width="61" height="63" as="geometry"/>
                </mxCell>
                <mxCell id="6" value="" style="outlineConnect=0;dashed=0;verticalLabelPosition=bottom;verticalAlign=top;align=center;html=1;shape=mxgraph.aws3.ec2;fillColor=#F58534;gradientColor=none;" parent="1" vertex="1">
                    <mxGeometry x="140" y="650" width="56.5" height="63" as="geometry"/>
                </mxCell>
                <mxCell id="7" value="" style="outlineConnect=0;dashed=0;verticalLabelPosition=bottom;verticalAlign=top;align=center;html=1;shape=mxgraph.aws3.rds;fillColor=#2E73B8;gradientColor=none;" parent="1" vertex="1">
                    <mxGeometry x="229" y="650" width="52" height="61" as="geometry"/>
                </mxCell>
                <mxCell id="8" value="Badtion" style="rounded=1;whiteSpace=wrap;html=1;" parent="1" vertex="1">
                    <mxGeometry x="140.5" y="450.63" width="60" height="20" as="geometry"/>
                </mxCell>
                <mxCell id="9" value="" style="shape=image;verticalLabelPosition=bottom;labelBackgroundColor=#ffffff;verticalAlign=top;aspect=fixed;imageAspect=0;image=data:image/png,iVBORw0KGgoAAAANSUhEUgAAAPAAAADSCAMAAABD772dAAAA+VBMVEX////1hTadUCWzs7P1gzH//fv3nmL1gSz1fyj1gi/6yKn5uI31fiX2mWD2klP4roH5u5r1jEf0ehb707j4qHH72cf+7+T1jkGYTSTXczDq3NWeUCH2lViZRhH+9e+bSxyXQgD959j1iDv5u5T2kUz82ML28Oz96t/6wqD3pXH3oWn5uJD6yan4sof4q3rqgTikXjfdxrvi0MjIbjPRsqOxYjLgiE26iHCnYTnkuqPdrZPMkG7BjnHdm3Pjqobaciq+bDfMp5TOZhezWh2rb0++lYW0XyvTdznefj20fF7IcjqmYz/Ttqe1f2KSNADTf0m/dEbDdUbUfkbuNCnNAAAOCElEQVR4nO2dfV/iSBLHSa5DEjbCQAZEIDwERMEBcZTBu9u7HW91Rkdnd5z3/2Kuw4OmA0mqHwrvWH7/zH5chf5S1dVV1Z0m87fMX0x74F3XHnjXtQfede2Bd1174F3XGwEbVG/zztsDbnbKbq47Kgyz2eywcXjYo/8ORt2ce9xpbm0QWwE2Kp1yd1jUiG1ZlmnagYimEUL/NYMfEc3PjtxOBX8oGXRgo0lZe8QxA8R4EWI6VnFw5lbQHR0VuPMuS0GSWUPUtumUGmfHuMxowM3ySDMtIGuI2jS1cRlxUiMBn/ySd0xe2JVsp1foYNkZBbhzpvHblrVzKZvDMbN6YOM4bwkbN8RsOSjIqoEN98CUMm5IVq+rHlkx8HHWUYWrBVb2T1XPZaXAnYZK3LmUO7ZC4MrIthXjzpEbx+rGqBL4A7EQcKmIU1CYdaoCpt6MgxvINE8VDVMVsHGqYXjzq6zsiZKBKgI+GSCadyHbz6kYqRpg18E170LOUEm4lgdujpCCVVRmvvy/AFzJbomXujVx3x64TLbhziuVzqQTL0ngHFGdWiXLyspOZDngU2WFAlRmT5JYCriAvhqtyz7svBnwYGvhiiH2pYK1OLAx3Ga4ColoMsTCwM3tLUfrxBL1kyhwM6ugjfMWxILABiovidfyF0zhyCUIPMb0Z/8wQUtiX7R6EgMeY65H5i9Jb51dGNnuCTYFhIDPUOdvIrCxBNbsvFiWKQLsljB5gcCa9X5bwGXk/AoIrDnd7QB3isj5MxRYM0WqRX7gPHaCBQbWLIFQzQ1cQE+w4MBEoHTiBXbxE0o4sGaNsYErPn4BzAEsMI05gRtbqJB4gDWHN//gAz7dQoVESiMOYHuACVzB9mfbMu1GN6kwiAJrDmeDngcYteQntlXyB7m0sx1rwJrGtzbxALtoKZbtmPlx7gSQHa8Dm3xOzQFsoERoYlrEH7vQ44cbLGxxdXw4gLsoEasxcnmK+Q3ApMdTN8GBKyg1IW/rYgMwX9yCAxdQgHmXlU3ApMiRYYKBO0hLks3Xc90EzFUogoGxliTSkwfWNLiJocBYBqbm4UqHNwOb75QDj9DaWM4BT5CNsTABmxgI3MRqYxFzvDbWpMHHAFvgYz5AYJw1ODhOub6HcJI0+DgLN6AmhgE38yhT2HZGG8aZ5amWVgJHAhgwThbtZDdlHaMSTz28EmkoBY55FynZ/rtN0cp1uBoAr8TAlA0EXFGPqzmNjSPs+MQ8SxpLHLAFXJlAwOobHab2IfwGJ+NlUdss2jQVeZ+gw5hXJIcKgVWHLGKNw1W7kfOd7OI/B0E+R+wExb6oA8tRIcAVxYuwyR4wOxk6ZBllcxLBMXkmcAGr9WjCrkVGtzS3mkOn9LHMYgBcigHAxkBl3WD2GNcrN5afpj00Tg6lpo4FitMA4AobJ4iZrMRB2c4ZY97R6/NNVjcr98FaoCIRAMw6GjkoJGpUTBiTc8BYwfXDk0X2VB8s9wAAs4WS9SHl1w9ix22zD+VUBooPLvqQXQgAMLsoCQMTq8F0kD/4qitOE3KYKR244jOvaqV1zGKATY1ZizoHyh9x0izIwpQOfMwaQgw4UvY2uxjHrEGTOB04sgoLAVtF1rwNnPLaUQL8nrWFALDtFMLBqjlS780LlQDbTOnA7BQWAHYaTKrhKg9Wr+8E6AKkAhuRRJoX2CbMM7GVMeIhekg6nQrcieS3nMCRrsYHyIPyZilBSR+XDTjykQoc7e5wAZvs82SwYCXW8QgEqR9SgaOlEg+wOQhHkSbwAUVxYO0wPddKBY524OHAFnvEppzfXPytAUgAA06qpQGv1YZQ4EjZW4lbi/JDJxLGJICd9AoxDbgZfQMgsMl22N1ezOylcaYzKlrhT1UGOH1dSgVuiACTEmPe5jg2uM4Da9PNll4LYxmXTi+J04AjpQMM2GJbsDkSvxatVpLmaWPl2hLAyYfpsYAt7TRs3s4wqVP1unQ2O+PiHFkC2E4/NJ4GfBKde6nA+R7Tgu06jpUgJzzEitugri0DnJ55pAJHW7SpwEywMk7P3iUrEmYqp3muo4esAAWiemBZGeWkULuDwMnaA6sG/jt30MIVOvA//mrAewvvOvA/oyXszgNH02B04GYuaW8jJdNKP6qaBvwrdy59ytZJfjFRfoH542b5vSZ0imcJLJ9a/nrOC9xgNoAN99BKeOCbmOEhnrxrOLZU8VBI+NOF1AMfmKUCY+RCUqcxVC25WceSrZb+lcabCjw74gYm0Y2z8kF8s3IJ3OwMtFXbQ6Ye/rc88G8CwMExnXD/MGHvbA5c6TZCTZ7/R+Bgd5TtSA9jTgLRWecOHOZiVxngf8oDi7j0XM4wcrxhc5/H962I9SWAz3+VB/4s1rUMBs6ecDiB7ipJAP92Iw18MxUGXjNyGXbzJehaCzzglgRwcEopbGSjawI2W+xBOUGJxyD/81EauNaOvCbn7qF1wGwOdxqA3UPbSVBiKv17TQHwvRSwZrMeapwi3glJ6iqAL+WA6V+wdyM1B1gnHjTNkwfut6SBNWIzuWb8RpOs7id9eeDJtYJzWlaRNfIYx8iXt/LAxqwaGbvYOS0ny+xVl1EuK/79LpU3fUP8zvuqADhIQ1xmhUK4r9ivpy/D6cA3HptriQLTgmLIGLmTVW3kc+9KAfCTN2UmscxpWifHPLjjampPbH1rp0/hdOB+u8r2AIr5RDWiPaGwTHbjuFIIl0ly5+GpvrTTeQEn8dpVdhInXdH3ek1fjGzCfo/B8WsNZbqS9zaf6xMlwLeta5VriNNjjNw8W2Ze5iBjyF18c+QBYhYA+MnTk071c4vY7BOWnUUDiNCIJveUx9S7UAJ84UV9WlYWexW4cUpszZk/Qyv1HI+upyeWEOD+RJ8mBSIBEbavmakMneVNAPPnlJOqpfhv+fmqPwJ4Ic883Laq0V6ttGgawrzHy+UlA0uz37sJ6sURf2nNFAHfeHq0zyMv4qw/Ch+o0ks+1BLb8TivttOrfxhwra1PlZt4ra+5UsexhHpal7oOSDtAwH3q04rD1kKRltdSOaG9pfM6zKNBD1veefoUAzjoa254u4HIsaWjKiSRBgJTn67eb3wbaW26BqApsF1Kpnobdh0I6IFpvY5k4uBSuDOuuyljgI+qrQfYC4CArzw0E2taScHVNNpUB6VZUOCarqOZWDO5rk3eDHxUBcZo6LUWty00E3MeodgM/EUHxmgo8Mc2lolJke8mzo3A1MCABi0PcB/NxLDHupOBaYhuPUAnBvDyIRq29IniEmIhBXfifa3qbWDIAgMbLV2vfsMALh78Um7C49YGYF/X6xPwK0AvEKMVhK4jZNTz71rWhl1X+F5LcklnMCzL4gHu68HShOLUWpB+OKXDURnwHbzrwOd0SdLhLgK+BDAwMU4NsRQxLb83dk+STb0OPNV5DAwH7k/qlBjDqcPQwSW1haS7C9aAacSqPwKTDi7gzFMb06lD0A5PtRQ4NDxEcwEbj2iRmhXPoRafOnTrFudu2sxFEKh1tCJCCPgbNTC0bOAGznynJkZKP8SAyX3AC82i+YGDogmxbOIHDiZwHbDrLwqcuQriFvo0BgP713Q4bY4liRs48xA4dfUn3j0NPMD+czWIWHy8nMD9edzC637wAJMgYMHLQjHgedWEHaqBwJ/mvJwOzf9dLd8XxJgZF2jngXya0GHAy2Bh4Hn6QRcnRGK70KzEawG84OWN0CLAmdrCxBibLyv5vYTHYBa/MuflyylFgRdrk17FzKrTTlSQ/JzXAxzLUgCcuZkT69f4dUTc57GwL2eKJQ5szPC9OlELXpEJLAacMeqthVe/CfHSvvofvCuwOHCmP5kTo/cDNurP6vy9+WokSeBMLWh/bKdYjMj/tuTlzjikgDO1P/QlMW5eHdXh84K3LRKgZYAztdbCxtXP2+QtPi4+ZrEALQWc+aiviLc3kZfhSoZXHDg4F6BvNVj7y3Clew9CC5IsMPXq1hI5+rgehkjvx4qXq2mnEJjG6iXxFnIQ/+fSnXXvu4R95YAz/fqKGHt98lfmleWVA870b73lOGjsQlygXswrFa8UAGf6s/aKWP+KVU0UX8wrViCpBA422eor5CmKX/vPL+ate0+yw5UHzlzoLxNZvV8T/+fji3lbddDxUWzg0ETWq2rTEIp7/YJLl1+x+oiVAuCMcdOqvyDr6pD9P6evuPXWnVx4XkoFMM0zJy9GVjWXSS/kzNS8dcFyMCo1wBnjzmuFkCffJM1cvP+hh3Dr7ZkS82aUAdO06zZkZDrY6b3oKkX8++dJiJaadyIfnVdSBhzsSoSRqZk/f+X/PltC8j9/MLR6q61m9i6kEJgGr7BfBzG7ev313k95WC0Eq/WOnh+rUdyZgsXoVSqBqV/PdAY5gJ5Ov52fJ7s3/UT88/NPz18mEVoamx+V4qoGDpDbL6nXK/Tk+vLy5722/mzi/Cf+p5+Xn6OWXVj3+kKmFNwk1cA0D7m5brfWxl6da3L94/korOcf15P5/1n7gwD3u6KlKCz1wBT54kH3NhCE0ZeK/a26N5nVVFs3EAYwVe3Oa8czp6nutR+fFEbmsJCAqS7u9HZr3bdT1fLat1cqsubNwgOmrl2bPXgeD3PL8ybfb/oYrrwSJnCgjxcPlAJAPf+t2dVHJE9+ETZwoNrT1WzSbnstqjq7ZtXrwQ+9drs+u8Katay2AUxl9Pu1p7vZbPb4WA9rckt/dvdU628FNtCWgF9EwcPaHuhK2wZ+c+2Bd1174F3XHnjXtQfede2Bd1174F3XHnjX9VcD/i8gymM3AFEnAAAAAABJRU5ErkJggg==;" parent="1" vertex="1">
                    <mxGeometry x="208.25" y="418.75" width="70" height="61.25" as="geometry"/>
                </mxCell>
                <mxCell id="4" value="" style="outlineConnect=0;dashed=0;verticalLabelPosition=bottom;verticalAlign=top;align=center;html=1;shape=mxgraph.aws3.virtual_private_cloud;fillColor=#F58534;gradientColor=none;" parent="1" vertex="1">
                    <mxGeometry x="90" y="313" width="79.5" height="44" as="geometry"/>
                </mxCell>
                <mxCell id="2" value="Internet&#10;gateway" style="outlineConnect=0;fontColor=#232F3E;gradientColor=none;strokeColor=#232F3E;fillColor=#ffffff;dashed=0;verticalLabelPosition=bottom;verticalAlign=top;align=center;html=1;fontSize=12;fontStyle=0;aspect=fixed;shape=mxgraph.aws4.resourceIcon;resIcon=mxgraph.aws4.internet_gateway;" parent="1" vertex="1">
                    <mxGeometry x="320" y="310" width="50" height="50" as="geometry"/>
                </mxCell>
                <mxCell id="17" value="wordpress" style="rounded=1;whiteSpace=wrap;html=1;" parent="1" vertex="1">
                    <mxGeometry x="128.25" y="621.9" width="80" height="20" as="geometry"/>
                </mxCell>
                <mxCell id="18" value="" style="shape=image;verticalLabelPosition=bottom;labelBackgroundColor=#ffffff;verticalAlign=top;aspect=fixed;imageAspect=0;image=data:image/png,iVBORw0KGgoAAAANSUhEUgAAAPAAAADSCAMAAABD772dAAAA+VBMVEX////1hTadUCWzs7P1gzH//fv3nmL1gSz1fyj1gi/6yKn5uI31fiX2mWD2klP4roH5u5r1jEf0ehb707j4qHH72cf+7+T1jkGYTSTXczDq3NWeUCH2lViZRhH+9e+bSxyXQgD959j1iDv5u5T2kUz82ML28Oz96t/6wqD3pXH3oWn5uJD6yan4sof4q3rqgTikXjfdxrvi0MjIbjPRsqOxYjLgiE26iHCnYTnkuqPdrZPMkG7BjnHdm3Pjqobaciq+bDfMp5TOZhezWh2rb0++lYW0XyvTdznefj20fF7IcjqmYz/Ttqe1f2KSNADTf0m/dEbDdUbUfkbuNCnNAAAOCElEQVR4nO2dfV/iSBLHSa5DEjbCQAZEIDwERMEBcZTBu9u7HW91Rkdnd5z3/2Kuw4OmA0mqHwrvWH7/zH5chf5S1dVV1Z0m87fMX0x74F3XHnjXtQfede2Bd1174F3XGwEbVG/zztsDbnbKbq47Kgyz2eywcXjYo/8ORt2ce9xpbm0QWwE2Kp1yd1jUiG1ZlmnagYimEUL/NYMfEc3PjtxOBX8oGXRgo0lZe8QxA8R4EWI6VnFw5lbQHR0VuPMuS0GSWUPUtumUGmfHuMxowM3ySDMtIGuI2jS1cRlxUiMBn/ySd0xe2JVsp1foYNkZBbhzpvHblrVzKZvDMbN6YOM4bwkbN8RsOSjIqoEN98CUMm5IVq+rHlkx8HHWUYWrBVb2T1XPZaXAnYZK3LmUO7ZC4MrIthXjzpEbx+rGqBL4A7EQcKmIU1CYdaoCpt6MgxvINE8VDVMVsHGqYXjzq6zsiZKBKgI+GSCadyHbz6kYqRpg18E170LOUEm4lgdujpCCVVRmvvy/AFzJbomXujVx3x64TLbhziuVzqQTL0ngHFGdWiXLyspOZDngU2WFAlRmT5JYCriAvhqtyz7svBnwYGvhiiH2pYK1OLAx3Ga4ColoMsTCwM3tLUfrxBL1kyhwM6ugjfMWxILABiovidfyF0zhyCUIPMb0Z/8wQUtiX7R6EgMeY65H5i9Jb51dGNnuCTYFhIDPUOdvIrCxBNbsvFiWKQLsljB5gcCa9X5bwGXk/AoIrDnd7QB3isj5MxRYM0WqRX7gPHaCBQbWLIFQzQ1cQE+w4MBEoHTiBXbxE0o4sGaNsYErPn4BzAEsMI05gRtbqJB4gDWHN//gAz7dQoVESiMOYHuACVzB9mfbMu1GN6kwiAJrDmeDngcYteQntlXyB7m0sx1rwJrGtzbxALtoKZbtmPlx7gSQHa8Dm3xOzQFsoERoYlrEH7vQ44cbLGxxdXw4gLsoEasxcnmK+Q3ApMdTN8GBKyg1IW/rYgMwX9yCAxdQgHmXlU3ApMiRYYKBO0hLks3Xc90EzFUogoGxliTSkwfWNLiJocBYBqbm4UqHNwOb75QDj9DaWM4BT5CNsTABmxgI3MRqYxFzvDbWpMHHAFvgYz5AYJw1ODhOub6HcJI0+DgLN6AmhgE38yhT2HZGG8aZ5amWVgJHAhgwThbtZDdlHaMSTz28EmkoBY55FynZ/rtN0cp1uBoAr8TAlA0EXFGPqzmNjSPs+MQ8SxpLHLAFXJlAwOobHab2IfwGJ+NlUdss2jQVeZ+gw5hXJIcKgVWHLGKNw1W7kfOd7OI/B0E+R+wExb6oA8tRIcAVxYuwyR4wOxk6ZBllcxLBMXkmcAGr9WjCrkVGtzS3mkOn9LHMYgBcigHAxkBl3WD2GNcrN5afpj00Tg6lpo4FitMA4AobJ4iZrMRB2c4ZY97R6/NNVjcr98FaoCIRAMw6GjkoJGpUTBiTc8BYwfXDk0X2VB8s9wAAs4WS9SHl1w9ix22zD+VUBooPLvqQXQgAMLsoCQMTq8F0kD/4qitOE3KYKR244jOvaqV1zGKATY1ZizoHyh9x0izIwpQOfMwaQgw4UvY2uxjHrEGTOB04sgoLAVtF1rwNnPLaUQL8nrWFALDtFMLBqjlS780LlQDbTOnA7BQWAHYaTKrhKg9Wr+8E6AKkAhuRRJoX2CbMM7GVMeIhekg6nQrcieS3nMCRrsYHyIPyZilBSR+XDTjykQoc7e5wAZvs82SwYCXW8QgEqR9SgaOlEg+wOQhHkSbwAUVxYO0wPddKBY524OHAFnvEppzfXPytAUgAA06qpQGv1YZQ4EjZW4lbi/JDJxLGJICd9AoxDbgZfQMgsMl22N1ezOylcaYzKlrhT1UGOH1dSgVuiACTEmPe5jg2uM4Da9PNll4LYxmXTi+J04AjpQMM2GJbsDkSvxatVpLmaWPl2hLAyYfpsYAt7TRs3s4wqVP1unQ2O+PiHFkC2E4/NJ4GfBKde6nA+R7Tgu06jpUgJzzEitugri0DnJ55pAJHW7SpwEywMk7P3iUrEmYqp3muo4esAAWiemBZGeWkULuDwMnaA6sG/jt30MIVOvA//mrAewvvOvA/oyXszgNH02B04GYuaW8jJdNKP6qaBvwrdy59ytZJfjFRfoH542b5vSZ0imcJLJ9a/nrOC9xgNoAN99BKeOCbmOEhnrxrOLZU8VBI+NOF1AMfmKUCY+RCUqcxVC25WceSrZb+lcabCjw74gYm0Y2z8kF8s3IJ3OwMtFXbQ6Ye/rc88G8CwMExnXD/MGHvbA5c6TZCTZ7/R+Bgd5TtSA9jTgLRWecOHOZiVxngf8oDi7j0XM4wcrxhc5/H962I9SWAz3+VB/4s1rUMBs6ecDiB7ipJAP92Iw18MxUGXjNyGXbzJehaCzzglgRwcEopbGSjawI2W+xBOUGJxyD/81EauNaOvCbn7qF1wGwOdxqA3UPbSVBiKv17TQHwvRSwZrMeapwi3glJ6iqAL+WA6V+wdyM1B1gnHjTNkwfut6SBNWIzuWb8RpOs7id9eeDJtYJzWlaRNfIYx8iXt/LAxqwaGbvYOS0ny+xVl1EuK/79LpU3fUP8zvuqADhIQ1xmhUK4r9ivpy/D6cA3HptriQLTgmLIGLmTVW3kc+9KAfCTN2UmscxpWifHPLjjampPbH1rp0/hdOB+u8r2AIr5RDWiPaGwTHbjuFIIl0ly5+GpvrTTeQEn8dpVdhInXdH3ek1fjGzCfo/B8WsNZbqS9zaf6xMlwLeta5VriNNjjNw8W2Ze5iBjyF18c+QBYhYA+MnTk071c4vY7BOWnUUDiNCIJveUx9S7UAJ84UV9WlYWexW4cUpszZk/Qyv1HI+upyeWEOD+RJ8mBSIBEbavmakMneVNAPPnlJOqpfhv+fmqPwJ4Ic883Laq0V6ttGgawrzHy+UlA0uz37sJ6sURf2nNFAHfeHq0zyMv4qw/Ch+o0ks+1BLb8TivttOrfxhwra1PlZt4ra+5UsexhHpal7oOSDtAwH3q04rD1kKRltdSOaG9pfM6zKNBD1veefoUAzjoa254u4HIsaWjKiSRBgJTn67eb3wbaW26BqApsF1Kpnobdh0I6IFpvY5k4uBSuDOuuyljgI+qrQfYC4CArzw0E2taScHVNNpUB6VZUOCarqOZWDO5rk3eDHxUBcZo6LUWty00E3MeodgM/EUHxmgo8Mc2lolJke8mzo3A1MCABi0PcB/NxLDHupOBaYhuPUAnBvDyIRq29IniEmIhBXfifa3qbWDIAgMbLV2vfsMALh78Um7C49YGYF/X6xPwK0AvEKMVhK4jZNTz71rWhl1X+F5LcklnMCzL4gHu68HShOLUWpB+OKXDURnwHbzrwOd0SdLhLgK+BDAwMU4NsRQxLb83dk+STb0OPNV5DAwH7k/qlBjDqcPQwSW1haS7C9aAacSqPwKTDi7gzFMb06lD0A5PtRQ4NDxEcwEbj2iRmhXPoRafOnTrFudu2sxFEKh1tCJCCPgbNTC0bOAGznynJkZKP8SAyX3AC82i+YGDogmxbOIHDiZwHbDrLwqcuQriFvo0BgP713Q4bY4liRs48xA4dfUn3j0NPMD+czWIWHy8nMD9edzC637wAJMgYMHLQjHgedWEHaqBwJ/mvJwOzf9dLd8XxJgZF2jngXya0GHAy2Bh4Hn6QRcnRGK70KzEawG84OWN0CLAmdrCxBibLyv5vYTHYBa/MuflyylFgRdrk17FzKrTTlSQ/JzXAxzLUgCcuZkT69f4dUTc57GwL2eKJQ5szPC9OlELXpEJLAacMeqthVe/CfHSvvofvCuwOHCmP5kTo/cDNurP6vy9+WokSeBMLWh/bKdYjMj/tuTlzjikgDO1P/QlMW5eHdXh84K3LRKgZYAztdbCxtXP2+QtPi4+ZrEALQWc+aiviLc3kZfhSoZXHDg4F6BvNVj7y3Clew9CC5IsMPXq1hI5+rgehkjvx4qXq2mnEJjG6iXxFnIQ/+fSnXXvu4R95YAz/fqKGHt98lfmleWVA870b73lOGjsQlygXswrFa8UAGf6s/aKWP+KVU0UX8wrViCpBA422eor5CmKX/vPL+ate0+yw5UHzlzoLxNZvV8T/+fji3lbddDxUWzg0ETWq2rTEIp7/YJLl1+x+oiVAuCMcdOqvyDr6pD9P6evuPXWnVx4XkoFMM0zJy9GVjWXSS/kzNS8dcFyMCo1wBnjzmuFkCffJM1cvP+hh3Dr7ZkS82aUAdO06zZkZDrY6b3oKkX8++dJiJaadyIfnVdSBhzsSoSRqZk/f+X/PltC8j9/MLR6q61m9i6kEJgGr7BfBzG7ev313k95WC0Eq/WOnh+rUdyZgsXoVSqBqV/PdAY5gJ5Ov52fJ7s3/UT88/NPz18mEVoamx+V4qoGDpDbL6nXK/Tk+vLy5722/mzi/Cf+p5+Xn6OWXVj3+kKmFNwk1cA0D7m5brfWxl6da3L94/korOcf15P5/1n7gwD3u6KlKCz1wBT54kH3NhCE0ZeK/a26N5nVVFs3EAYwVe3Oa8czp6nutR+fFEbmsJCAqS7u9HZr3bdT1fLat1cqsubNwgOmrl2bPXgeD3PL8ybfb/oYrrwSJnCgjxcPlAJAPf+t2dVHJE9+ETZwoNrT1WzSbnstqjq7ZtXrwQ+9drs+u8Katay2AUxl9Pu1p7vZbPb4WA9rckt/dvdU628FNtCWgF9EwcPaHuhK2wZ+c+2Bd1174F3XHnjXtQfede2Bd1174F3XHnjX9VcD/i8gymM3AFEnAAAAAABJRU5ErkJggg==;" parent="1" vertex="1">
                    <mxGeometry x="440" y="418.75" width="70" height="61.25" as="geometry"/>
                </mxCell>
                <mxCell id="19" value="" style="outlineConnect=0;dashed=0;verticalLabelPosition=bottom;verticalAlign=top;align=center;html=1;shape=mxgraph.aws3.cloud_2;fillColor=#F58534;gradientColor=none;" parent="1" vertex="1">
                    <mxGeometry x="90" y="200" width="68.25" height="65" as="geometry"/>
                </mxCell>
                <mxCell id="uySyfro_TUoS6OIXRLS8-21" value="" style="endArrow=none;html=1;entryX=0.5;entryY=1;entryDx=0;entryDy=0;entryPerimeter=0;" parent="1" target="5" edge="1">
                    <mxGeometry width="50" height="50" relative="1" as="geometry">
                        <mxPoint x="171" y="622" as="sourcePoint"/>
                        <mxPoint x="430" y="520" as="targetPoint"/>
                    </mxGeometry>
                </mxCell>
                <mxCell id="uySyfro_TUoS6OIXRLS8-22" value="" style="endArrow=none;html=1;exitX=1;exitY=0.5;exitDx=0;exitDy=0;exitPerimeter=0;" parent="1" source="6" target="7" edge="1">
                    <mxGeometry width="50" height="50" relative="1" as="geometry">
                        <mxPoint x="380" y="570" as="sourcePoint"/>
                        <mxPoint x="430" y="520" as="targetPoint"/>
                    </mxGeometry>
                </mxCell>
                <mxCell id="uySyfro_TUoS6OIXRLS8-24" value="" style="outlineConnect=0;dashed=0;verticalLabelPosition=bottom;verticalAlign=top;align=center;html=1;shape=mxgraph.aws3.vpn_gateway;fillColor=#F58534;gradientColor=none;" parent="1" vertex="1">
                    <mxGeometry x="261" y="585" width="29" height="32" as="geometry"/>
                </mxCell>
                <mxCell id="uySyfro_TUoS6OIXRLS8-25" value="" style="outlineConnect=0;dashed=0;verticalLabelPosition=bottom;verticalAlign=top;align=center;html=1;shape=mxgraph.aws3.vpn_gateway;fillColor=#F58534;gradientColor=none;" parent="1" vertex="1">
                    <mxGeometry x="571" y="585" width="29" height="32" as="geometry"/>
                </mxCell>
                <mxCell id="uySyfro_TUoS6OIXRLS8-26" value="wp-test.bcr.dev" style="text;html=1;strokeColor=none;fillColor=none;align=center;verticalAlign=middle;whiteSpace=wrap;rounded=0;" parent="1" vertex="1">
                    <mxGeometry x="289.75" y="130" width="110" height="30" as="geometry"/>
                </mxCell>
                <mxCell id="uySyfro_TUoS6OIXRLS8-27" value="" style="endArrow=classic;html=1;exitX=0.5;exitY=1;exitDx=0;exitDy=0;" parent="1" source="uySyfro_TUoS6OIXRLS8-26" target="3" edge="1">
                    <mxGeometry width="50" height="50" relative="1" as="geometry">
                        <mxPoint x="380" y="440" as="sourcePoint"/>
                        <mxPoint x="430" y="390" as="targetPoint"/>
                    </mxGeometry>
                </mxCell>
                <mxCell id="uySyfro_TUoS6OIXRLS8-28" value="" style="endArrow=none;html=1;" parent="1" source="9" target="2" edge="1">
                    <mxGeometry width="50" height="50" relative="1" as="geometry">
                        <mxPoint x="380" y="440" as="sourcePoint"/>
                        <mxPoint x="430" y="390" as="targetPoint"/>
                    </mxGeometry>
                </mxCell>
                <mxCell id="uySyfro_TUoS6OIXRLS8-29" value="" style="endArrow=none;html=1;exitX=0;exitY=0;exitDx=0;exitDy=0;" parent="1" source="18" target="2" edge="1">
                    <mxGeometry width="50" height="50" relative="1" as="geometry">
                        <mxPoint x="380" y="440" as="sourcePoint"/>
                        <mxPoint x="430" y="390" as="targetPoint"/>
                    </mxGeometry>
                </mxCell>
                <mxCell id="uySyfro_TUoS6OIXRLS8-30" value="" style="endArrow=none;html=1;exitX=0.5;exitY=1;exitDx=0;exitDy=0;exitPerimeter=0;" parent="1" source="3" target="2" edge="1">
                    <mxGeometry width="50" height="50" relative="1" as="geometry">
                        <mxPoint x="380" y="440" as="sourcePoint"/>
                        <mxPoint x="430" y="390" as="targetPoint"/>
                    </mxGeometry>
                </mxCell>
                <mxCell id="uySyfro_TUoS6OIXRLS8-31" value="" style="endArrow=none;html=1;exitX=0;exitY=1;exitDx=0;exitDy=0;" parent="1" source="9" target="5" edge="1">
                    <mxGeometry width="50" height="50" relative="1" as="geometry">
                        <mxPoint x="380" y="480" as="sourcePoint"/>
                        <mxPoint x="430" y="430" as="targetPoint"/>
                    </mxGeometry>
                </mxCell>
                <mxCell id="uySyfro_TUoS6OIXRLS8-32" value="NAT gateway" style="outlineConnect=0;fontColor=#232F3E;gradientColor=none;strokeColor=#232F3E;fillColor=#ffffff;dashed=0;verticalLabelPosition=bottom;verticalAlign=top;align=center;html=1;fontSize=12;fontStyle=0;aspect=fixed;shape=mxgraph.aws4.resourceIcon;resIcon=mxgraph.aws4.nat_gateway;" parent="1" vertex="1">
                    <mxGeometry x="104.12" y="380" width="40" height="40" as="geometry"/>
                </mxCell>
                <mxCell id="uySyfro_TUoS6OIXRLS8-33" value="NAT gateway" style="outlineConnect=0;fontColor=#232F3E;gradientColor=none;strokeColor=#232F3E;fillColor=#ffffff;dashed=0;verticalLabelPosition=bottom;verticalAlign=top;align=center;html=1;fontSize=12;fontStyle=0;aspect=fixed;shape=mxgraph.aws4.resourceIcon;resIcon=mxgraph.aws4.nat_gateway;" parent="1" vertex="1">
                    <mxGeometry x="571" y="380" width="40" height="40" as="geometry"/>
                </mxCell>
                <mxCell id="uySyfro_TUoS6OIXRLS8-34" value="" style="shape=mxgraph.signs.tech.computer;html=1;fillColor=#000000;strokeColor=none;verticalLabelPosition=bottom;verticalAlign=top;align=center;" parent="1" vertex="1">
                    <mxGeometry x="540" y="120" width="91" height="78" as="geometry"/>
                </mxCell>
                <mxCell id="uySyfro_TUoS6OIXRLS8-36" value="" style="shape=flexArrow;endArrow=classic;html=1;" parent="1" edge="1">
                    <mxGeometry width="50" height="50" relative="1" as="geometry">
                        <mxPoint x="510" y="170" as="sourcePoint"/>
                        <mxPoint x="440" y="220" as="targetPoint"/>
                    </mxGeometry>
                </mxCell>
                <mxCell id="uySyfro_TUoS6OIXRLS8-37" value="" style="shape=image;verticalLabelPosition=bottom;labelBackgroundColor=#ffffff;verticalAlign=top;aspect=fixed;imageAspect=0;image=data:image/png,iVBORw0KGgoAAAANSUhEUgAAAsgAAALICAYAAABiqwZ2AAAauElEQVR4Xu3cO5ZU53rH4apu24EjOTHqsxw0I/BhBgU4PhL5kWiNwGgEghFIGgGFfHJpSamAmoE0AyrwMkIKjvJDV7mbvujtTV/qsi/f5Xmy2m8Ov/WtP4xHAADAuXHzAwAA1EwgAwBAIJABACAQyAAAEAhkAAAIBDIAAAQCGQAAAoEMAACBQAYAgEAgAwBAIJABACAQyAAAEAhkAAAIBDIAAAQCGQAAAoEMAACBQAYAgEAgAwBAIJABACAQyAAAEAhkAAAIBDIAAAQCGQAAAoEMAACBQAYAgEAgAwBAIJABACAQyAAAEAhkAAAIBDIAAAQCGQAAAoEMAACBQAYAgEAgAwBAIJABACAQyAAAEAhkAAAIBDIAAAQCGQAAAoEMAACBQAYAgEAgAwBAIJABACAQyAAAEAhkAAAIBDIAAAQCGQAAAoEMAACBQAYAgEAgAwBAIJABACAQyAAAEAhkAAAIBDIAAAQCGQAAAoEMAACBQAYAgEAgAwBAIJABACAQyAAAEAjkAXx69/V0vPtPfx+/ffv1dLY3b94BABjOTvMDPVkuHi13d15+cu/1QfMEAMBwBPKw9nfGO08f3n/z6q/333zcPAIA0D+BnIb93dHo24f3f316MHm93zwCANAfgZyU5cFyd+fVw//67UuhDAAwDIGcIvtkAIDBCOR0ne+ThTIAQH8EcvpOQ9k+GQCgDwI5G6f7ZKEMANApgZydd6FsnwwA0BGBnCf7ZACAjgjkvNknAwC0TCAXwT4ZAKAtArko9skAANsSyOWxTwYA2IJALpd9MgDABgRy8eyTAQDWIZCrYZ8MALAKgVwX+2QAgBsI5DrZJwMAXEEgV80+GQCgSSAzsk8GAPiDQOaMfTIAwEgg8z77ZACgagKZK9gnAwB1EsjcwD4ZAKiLQGYV9skAQDUEMuuwTwYAiieQ2YB9MgBQLoHMFuyTAYDyCGS2ZZ8MABRFINMW+2QAoAgCmZbZJwMAeRPIdMQ+GQDIk0CmS/bJAEB2BDJ9sE8GALIhkOmRfTIAkD6BzADskwGAdAlkhmKfDAAkSSAztLNQ/tbsAgBIgUAmFR/bJwMAKRDIJOZsn/zLo+YFAKAPApkU7e+Mx1/aJwMAQxDIpMw+GQDonUAmB/bJAEBvBDIZsU8GALonkMmNfTIA0CmBTK7skwGATghkcmefDAC0SiBTCPtkAKAdApmS2CcDAFsTyJTIPhkA2JhApmT2yQDA2gQyFbBPBgBWJ5CphX0yALASgUxt7JMBgGsJZGplnwwAXEogUzn7ZADgIoEM9skAQCCQ4Q/2yQCAQIZL2CcDQMUEMlzJPhkAaiSQ4Xr2yQBQGYEMq7FPBoBKCGRYj30yABROIMNG7JMBoFQCGTZnnwwABRLIsD37ZAAoiECG9tgnA0ABBDK0zj4ZAHImkKEb9skAkCmBDN2yTwaAzAhk6Id9MgBkQiBDr072yZ/e++2L5gUASINAhv7tj8eLx/bJAJAmgQzDOd0n//rS7AIA0iGQYXDLiX0yAKRDIEMy7JMBIAUCGdJinwwAAxPIkCb7ZAAYiECGpNknA0DfBDJkwT4ZAPoikCEf9skA0AOBDPmxTwaADglkyJZ9MgB0QSBD9uyTAaBNAhnKYJ8MAC0RyFAW+2QA2JJAhiLZJwPApgQyFM0+GQDWJZChfPbJALAGgQz1sE8GgBUIZKiOfTIAXEcgQ7VO9snNrwBQO4EMddtvfgCA2glkAAAIBDIAAAQCGQAAAoEMAACBQAYAgEAgAwBAIJABACAQyAAAEAhkAAAIBDLQiof3f316MHm93/wOwHYmkx/+ezL59uPmd7ojkIGWLA+WuzsvP7n3+qB5AWB9R1E8mUy+f3n05+tXo9HuB8073RHIQJv2d8Y7Tx/ef/NKKANs5iiM90/CePfl8c/mne4JZKALp6FsdgGwqqMw/mAy+eGLozD+6fhn805/BDLQoXezi1dCGeB6xzvjozB+dfTn5uOjn+YUAxPIQA/skwEuc3FnLIxTIZCBvtgnA5yyM06bQAb6Zp8MVMvOOA8CGRiIfTJQFzvjfAhkYGD2yUDZ7IzzI5CBFNgnA8WxM86XQAZSYp8MZM/OOH8CGUiQfTKQJzvjMghkIGH2yUAe7IzLIpCB1NknA8myMy6TQAZyYZ8MJMPOuGwCGciMfTIwLDvj8glkIFP2yUC/7IzrIZCBnNknA52zM66PQAZKYJ8MtM7OuF4CGSiIfTLQDjvjuglkoED2ycBm7Iw5JpCBUtknAyuzMyYSyEDp7JOBK9kZcxmBDFTCPhm4yM6YqwhkoDJn++RfHjUvQB3sjLmJQAZqtL8zHn9pnwx1sTNmVQIZqNnZP+T71uwCymVnzLoEMsBo9LF9MpTJzphNCGSAc/bJUAo7Y7YhkAEusk+GjNkZ0waBDHA5+2TIiJ0xbRLIANezT4bE2RnTNoEMsBL7ZEiNnTFdEcgAq7NPhgTYGdM1gQywPvtkGICdMX0RyACbs0+GntgZ0yeBDLA1+2ToysnO+Ief7Izpk0AGaId9MrTo4s54+efmHbokkAHaZZ8MWwg741fHP5t36INABuiGfTKsqbEzhsEIZIBO2SfDTeyMSY1ABuiefTJcws6YVAlkgP7YJ8PIzpj0CWSA/tknUy07Y3IgkAEGY59MPeyMyYlABhiWfTJFszMmRwIZIA32yRTFzpicCWSAtNgnkz07Y3InkAGSZJ9MfuyMKYVABkiXfTJZsDOmNAIZIH32ySTJzphSCWSAfNgnkww7Y0omkAGyY5/McOyMqYFABsiTfTK9sjOmJgIZIG/2yXTKzpgaCWSAMtgn0zo7Y2olkAGKYp/M9uyMqZ1ABiiPfTIbsTOGEwIZoFz2yazEzhguEsgA5bNP5kp2xvA+gQxQDftk/mBnDFcTyAB1sU+unJ0x3EwgA9TJPrkydsawOoEMUDf75ArYGcN6BDIAo7N98qf3fvuieSFfdsawGYEMwJn98Xjx2D45f3bGsB2BDEDT6T7515dmF3mxM4Z2CGQArrCc2Cfnw84Y2iOQAbiBfXLK7IyhfQIZgFXYJyfGzhi6I5ABWId98sDsjKF7AhmADdgnD8HOGPohkAHYgn1yH+yMoV8CGYBt2Sd3xM4YhiGQAWiLfXJL7IxhWAIZgJbZJ2/DzhiGJ5AB6Ih98jpOdsbfH4exnTEMTCAD0CX75Btc3BmP9pt3oH8CGYA+2Cc3nOyMv//SzhjSI5AB6JF98rE/dsajR80bMDyBDMAA6twn2xlDHgQyAEOpZp9sZwx5EcgD+Obl3sF4ufhstBzNmzeAChW7T7YzhjwJ5IFMX+xNx4vF3eVo+XXzBlCnsvbJdsaQL4E8oOlsb/7N8w8fjQ8Xt5ejxbPmHaBOee+T7YwhfwI5ASehvHcwHo0emF0AvJPdPtnOGMohkBMyfX7ru2cvbt22TwY4l/w+2c4YyiOQE2SfDNCU5j7ZzhjKJJATZZ8McJk09sl2xlA2gZw4+2SA9wy2T7YzhjoI5EzYJwO8p7d9sp0x1EUgZ8Y+GaCp232ynTHURyBnyD4Z4DIn++RP7v3SSsiezinsjKFCAjlj9skA79nfGY3/s/lxQ5ORnTFUSSAXwD4ZAKA9Arkg9skAANsTyIWxTwYA2I5ALpR9MgDAZgRy4eyTAQDWI5ArYZ8MALAagVwR+2QAgJsJ5Aqd75PHi7tmFwAAFwnkik1/3JvZJwMAXCSQOd8nj8eLJ80bAEBtBDLvHM8upj/uPbZPBgBqJ5C5wD4ZAKidQOZS9skAQK0EMteyTwYAaiOQuZF9MgBQE4HMyuyTAYAaCGTWZp8MAJRMILMx+2QAoEQCma3YJwMApRHItMI+GQAohUCmVfbJAEDuBDKdsE8GAHIlkOmMfTIAkCOBTOfskwGAnAhkemOfDADkQCDTO/tkACBlAplB2CcDAKkSyAzKPhkASI1AJgn2yQBAKgQySbFPBgCGJpBJjn0yADAkgUyy7JMBgCEIZJJnnwwA9Ekgkw37ZACgDwKZrNgnAwBdE8hkyT4ZAOiKQCZr9skAQNsEMkWwTwYA2iKQKYZ9MgDQBoFMceyTAYBtCGSKZZ8MAGxCIFM8+2QAYB0CmSrYJwMAqxLIVMU+GQC4iUCmSvbJAMBVBDJVs08GAJoEMtWzTwYAIoEMp+yTAYBjAhka7JMBoG4CGa5gnwwAdRLIcA37ZACoj0CGFdgnA0A9BDKswT4ZAMonkGED9skAUC6BDBuyTwaAMglk2JJ9MgCURSBDS+yTAaAMAhlaZp8MAHkTyNAB+2QAyJdAhg7ZJwNAfgQy9MA+GQDyIZChR/bJAJA+gQw9s08GgLQJZBiIfTIApEkgw8DskwEgLQIZEnGyT/6XO/bJADAsgQwJmc7+7Xf7ZAAYlkCGBJ3vkw//ccfsAgD6JZAhYdPZf/xsnwwA/RLIkAH7ZADoj0CGTNgnA0A/BDJkxj4ZALolkCFT9skA0A2BDJmzTwaAdglkKIB9MgC0RyBDQeyTAWB7AhkKZJ8MAJsTyFAw+2QAWJ9AhsLZJwPAegQyVMI+GQBWI5ChMvbJAHA9gQyVOtsnN78DQO0EMlTseJ/c/AYAtRPIAAAQCGQAAAgEMgAABAIZAAACgQwAAIFABgCAQCADAEAgkAEAIBDIAAAQCGSgFePl4eej5Wje/A7A1qaj0eF3zY90RyADrZi++NNX48Xi7nK0eNa8AbCR2VEY353N/vLZbPbg9+aR7ghkoDXT2d78m+d7B+PDxW2hDLCx+VEYPzgK46M4fjBrHumeQAZadx7Ky8VnZhcAK/t9NFo+OYrjO0dhbFIxIIEMdGb6Ym/67MWt20IZ4EbTozC+PZt99NicYngCGejccSjbJwNcamZnnB6BDPTCPhnggrmdcboEMtAr+2SgcnbGGRDIwCDsk4EKTe2M8yCQgUHZJwMVmNkZ50UgA4OzTwYKNT8NYzvjzAhkIBn2yUAh4s541jySPoEMJMc+GcjX8ms74/wJZCBZ9slARmYnc4qPHgnj/AlkIGn2yUDi5nbG5RHIQBbsk4HE2BkXTCADWbFPBoZnZ1w6gQxkyT4ZGMDMzrgOAhnIln0y0JO5nXFdBDKQPftkoCN2xpUSyEArDiav95vf+mafDLTHzrhmAhloxXJ359Wn9377ovl9CPbJwBZmdsYIZKA14/Hi8cP7b159cu/1QfPWN/tkYE1zO2POCGSgbfs7452nx6F8MPnfPzePfbNPBm5gZ8x7BDLQlf3l7j//9PD+r0/tk4E02RlzOYEMdGx5cLZPPpi8+qB57Zt9MjCyM+YGAhnoxfE+ebn7rz/ZJwMDmtsZswqBDPTJPhkYgp0xaxHIwBDsk4Ge2BmzPoEMDMg+GejMzM6YTQlkYHD2yUCL5nbGbEsgA6mwTwa2YWdMawQykBr7ZGBNdsa0SyADiUp1n3z8FzGQiNnJi7GdMe0SyEDS0tsnf/jIPhkGNw8745+bR9iWQAZykOY+eTR6YHYBvXq3Mz4K49t2xnRJIAM5SWuf/PzWd/bJ0Jc/dsbNC7RNIAMZsk+GiszsjOmbQAayZZ8MRZvbGTMUgQzkzj4ZymJnzOAEMlAK+2TInp0xaRDIQGHskyFDMztjUiKQgSLZJ0MW5nbGpEggAyWzT4Y02RmTNIEM1MA+GZJhZ0z6BDJQEftkGNDMzphcCGSgOvbJ0Ku5nTG5EchAreyToVt2xmRLIAO1s0+G1tkZkzeBDPCOfTK0YGZnTAkEMkBgnwwbmdsZUxKBDPA++2RYjZ0xRRLIAFezT4Yr2RlTLoEMcCP7ZAhmdsaUTiADrMg+mcrN7YyphUAGWI99MrWxM6Y6AhlgM/bJVMDOmDoJZICt2CdTpNlpGNsZUyWBDNAC+2QKMQ8743nzCLUQyADtsU8mV8evxJ/bGcMJgQzQPvtkMnK2M/7LV80L1EogA3Qm7pMTCGX7ZC6a2RnD5QQyQMdO9sk7L+2TScTczhiuJ5AB+nG+T/7r5PWkeezb+T55vLhrdlENO2NYkUAG6Nf+7u7Oy2T2yT/uzeyTa2BnDOsQyACDSHOfPB4vnjRvZG1mZwzrE8gAA0ptnzz9ce+xfXIR5nbGsDmBDDA8+2TaYmcMLRDIAOmwT2YLdsbQFoEMkBz7ZNYyszOGdglkgETZJ3ODuZ0xdEMgA6TNPpkmO2PomEAGyIN9MiM7Y+iHQAbIin1ypWZ2xtAfgQyQIfvkasztjKF/AhkgX/bJ5bIzhgEJZID82ScXxc4YhiaQAYphn5y5mZ0xpEEgAxTGPjk7cztjSItABiiTfXL67IwhUQIZoGz2yUlaPrEzhnQJZIAq2CcnYna6M35sZwzpEsgAFbFPHsryZztjyIdABqiPfXJ/TnfGH92xM4Z8CGSAetknd8rOGHIlkAGqZ5/cspmdMeRNIAPwjn3ytuyMoRQCGYDIPnl9dsZQGIEMwGXsk1diZwwlEsgAXMM++QozO2Mol0AG4Eb2yWfsjKEGAhmAVdW8T7YzhooIZADWVdk+2c4YajNufgDYxMP7b5bNb9Rhudx5vLN4++z4Rbd569vB5O8fjEb/2J/O/v3n5m1dk8kPk9Ho7dyUAuojkIFWCOTqzRfLxZP/ebE3bR4AciOQgVYIZE7NDw8Xn/1ttjdrHgByYYMMQJuS2icDbMILMtAKL8hcJqV9MsCqvCAD0JmU/v9kgFV5QQZa4QWZFcwPR6PP//b81nfNA0BKvCAD0Jf93dHoW/tkIHVekIFWeEFmbeOdr8Zv335tnwykxgsyAMNYLh7ZJwMp8oIMtMILMluyTwaS4QUZgBTYJwPJ8IIMtMILMq2yTwYG5AUZgPTYJwMD8oIMtMILMh2yTwZ65QUZgNTZJwO98oIMtMILMr2xTwY65gUZgLzYJwMd84IMtMILMgOxTwZa5wUZgJzZJwOt84IMtMILMkmwTwZa4AUZgHIc75N3dr5ofgZYh0AGAIBAIAMAQCCQAQAgEMgAABAIZAAACAQyAAAEAhkAAAKBDAAAgUAGAIBAIAMAQCCQAQAgEMgAABAIZAAACAQyAAAEAhkAAAKBDAAAgUAGAIBAIAMAQCCQAQAgEMgAABAIZAAACAQyAAAEAhkAAAKBDAAAgUAGAIBAIAMAQCCQAQAgEMgAABAIZAAACAQyAAAEAhkAAAKBDAAAgUAGAIBAIAMAQCCQAQAgEMgAABAIZAAACAQyAAAEAhkAAAKBDAAAgUAGAIBAIAMAQCCQAQAgEMgAABAIZAAACAQyAAAEAhkAAAKBDAAAgUAGAIBAIAMAQCCQAQAgEMgAABAIZAAACAQyAAAEAhkAAAKBDAAAgUAGAIBAIAMAQCCQAQAgEMgAABAIZAAACAQyAAAEAhkAAAKBDAAAgUAGAIBAIAMAQCCQAQAgEMgAABAIZAAACAQyAAAEAhkAAAKBDAAAgUAGAIBAIAMAQCCQAQAgEMgAABAIZAAACAQyAAAEAhkAAAKBDAAAgUAGAIBAIAMAQCCQAQAgEMgAABAIZAAACAQyAAAEAhkAAAKBDAAAgUAGAIBAIAMAQCCQAQAgEMgAABAIZKAdy9G8+QkAciSQgVY8e3Hr9ni8eDJajn9v3gAgJwIZaM30x73H48XhneVo8ax5A4BcCGSgVdPZ3vyb53sH48PF7aOfPzfvAJA6gQx04jiUnz2/dWe8XHxmnwxATgQy0Knpi72pfTIAORHIQC/skwHIhUAGemOfDEAOBDLQO/tkAFImkIHB2CcDkCKBDAzOPhmAlAhkIAn2yQCkQiADSbFPBmBoAhlIkn0yAEMRyEDS7JMB6JtABpJnnwxAnwQykA37ZAD6IJCB7NgnA9AlgQxkyz4ZgC4IZCBr9skAtE0gA0WwTwagLQIZKIp9MgDbEshAkeyTAdiUQAaKZZ8MwCYEMlA8+2QA1iGQgWrYJwOwCoEMVMc+GYDrCGSgShf3yctZ8w5AvQQyULWTffKHd+2TATgjkAFGzX2yUAaomUAGCE72yYu79skA9RLIAA32yQB1E8gAV7BPBqiTQAa4gX0yQF0EMsCK7JMB6iCQAdZgnwxQPoEMsAH7ZIByCWSALdgnA5RHIAO0wD4ZoBwCGaAl9skAZRDIAC2zTwbIm0AG6Ih9MkCeBDJAx+yTAfIikAF6YJ8MkA+BDNAj+2SA9AlkgAHYJwOkSyADDMg+GSA9AhlgYPbJAGkRyACJsE8GSINABkiMfTLAsAQyQKLskwGGIZABEmafDNA/gQyQAftkgP4IZICM2CcDdE8gA2TIPhmgOwIZIFP2yQDdEMgAmbNPBmiXQAYohH0yQDsEMkBh7JMBtiOQAQpknwywOYEMUDD7ZID1CWSACtgnA6xOIANUxD4Z4GYCGaAy9skA1xPIAJWyTwa4nEAGqJx9MsBFAhmAd+yTAU4IZADO2ScDCGQALmGfDNRMIANwJftkoEYCGYAb2ScDNRHIAKzEPhmohUAGYC32yUDpBDIAG7FPBkolkAHYin0yUBqBDMDW7JOBkghkAFpjnwyUQCAD0Dr7ZCBnAhmAztgnAzkSyAB0yj4ZyI1ABqAX9slALgQyAL2yTwZSJ5ABGIR9MpAqgQzAYOyTgRQJZAAGZ58MpEQgA5AM+2QgBQIZgOTYJwNDEsgAJMk+GRiKQAYgafbJQN8EMgBZON8nLw8/F8pAlwQyAFmZvvjTV/bJQJcEMgDZaeyTv2veAbYhkAHI1uk++YF9MtCmcfMDAOTq4N7/PTr6q+2D6Yu9x80bwKoEMgAABAIZAAACgQwAAIFABgCAQCADAEAgkAEAIBDIAAAQCGQAAAgEMgAABAIZAAACgQwAAIFABgCAQCADAEAgkAEAIBDIAAAQCGQAAAgEMgAABAIZAAACgQwAAIFABgCAQCADAEAgkAEAIBDIAAAQCGQAAAgEMgAABAIZAAACgQwAAIFABgCAQCADAEAgkAEAIBDIAAAQCGQAAAgEMgAABAIZAAACgQwAAIFABgCAQCADAEAgkAEAIBDIAAAQCGQAAAgEMgAABAIZAAACgQwAAIFABgCAQCADAEAgkAEAIBDIAAAQCGQAAAgEMgAABAIZAAACgQwAAIFABgCAQCADAEAgkAEAIBDIAAAQCGQAAAgEMgAABAIZAAACgQwAAMH/A3FObC8j9PDVAAAAAElFTkSuQmCCICAgICAgICAgICAgICAgICAgICAgICAgICAgICAgICAgICAgICAgICAgICAgICAgICAgICAgICAgICAgICAgICAgICAgICAgICAgICAgICAgICAgICAgICAgICAgICAgICAgICAgICAgICAgICAgICAgICAgICAgICAgICAgICAgICAgICAgICAgICAgICAgICAgICAgICAgICAgICAgICAgICAgICAgICAgICAgICAgICAgICAgICAgICAgICAgICAgICAgICAgICAgICAgICAgICAgICAgICAgICAgICAgICAgICAgICAgICAgICAgICAgICAgICAgICAgICAgICAgICAgICAgICAgICAgICAgICAgICAgICAgICAgICAgICAgICAgICAgICAgICAgICAgICAgICAgICAgICAgICAgICAgICAgICAgICAgICAgICAgICAgICAgICAgICAgICAgICAgICAgICAgICAgICAgICAgICAgICAgICAgICAgICAgICAgICAgICAgICAgICAgICAgICAgICAgICAgICAgICAgICAgICAgICAgICAgICAgICAgICAgICAgICAgICAgICAgICAgICAgICAgICAgICAgICAgICAgICAgICAgICAgICAgICAgICAgICAgICAgICAgICAgICAgICAgICAgICAgICAgICAgICAgICAgICAgICAgICAgICAgICAgICAgICAgICAgICAgICAgICAgICAgICAgICAgICAgICAgICAgICAgICAgICAgICAgICAgICAgICAgICAgICAgICAgICAgICAgICAgICAgICAgICAgICAgICAgICAgICAgICA=;" parent="1" vertex="1">
                    <mxGeometry x="564.5" y="124" width="42" height="42" as="geometry"/>
                </mxCell>
                <mxCell id="21" value="" style="outlineConnect=0;dashed=0;verticalLabelPosition=bottom;verticalAlign=top;align=center;html=1;shape=mxgraph.aws3.s3;fillColor=#E05243;gradientColor=none;" parent="1" vertex="1">
                    <mxGeometry x="670" y="524" width="76.5" height="93" as="geometry"/>
                </mxCell>
            </root>
        </mxGraphModel>
    </diagram>
    <diagram id="D1blEx4J4izxuuB9pckA" name="ページ2">
        &#xa;        &#xa;        &#xa;&#xa;&#xa;
        <mxGraphModel dx="892" dy="582" grid="1" gridSize="10" guides="1" tooltips="1" connect="1" arrows="1" fold="1" page="1" pageScale="1" pageWidth="827" pageHeight="1169" math="0" shadow="0">
            &#xa;            &#xa;            &#xa;&#xa;&#xa;
            <root>
                &#xa;                &#xa;                &#xa;&#xa;&#xa;
                <mxCell id="CPnGD3Hd60haovpFMTRF-0"/>
                &#xa;                &#xa;                &#xa;&#xa;&#xa;
                <mxCell id="CPnGD3Hd60haovpFMTRF-1" parent="CPnGD3Hd60haovpFMTRF-0"/>
                &#xa;                &#xa;                &#xa;&#xa;&#xa;
            </root>
            &#xa;            &#xa;            &#xa;&#xa;&#xa;
        </mxGraphModel>
        &#xa;        &#xa;        &#xa;&#xa;&#xa;
    </diagram>
</mxfile>
